PathFileType	4	(X/Y/Z)	 s10c0203.trc
DataRate	CameraRate	NumFrames	NumMarkers	Units	OrigDataRate	OrigDataStartFrame	OrigNumFrames
200	200	4	49	mm	200	251	2000
Frame#	Time	racr			lacr			c7			jug			rlel			rdr			llel			ldr			s2			lic			ric			lasi			rasi			rpsi			lpsi			rgt			lgt			rth1			rth2			rth3			rth4			rlfc			rmfc			rsh1			rsh2			rsh3			rsh4			rlmal			rmmal			rcal			rtoe			rmt5			lth1			lth2			lth4			lth3			llfc			lmfc			llmal			lcal			lmt5			lsh1			lsh2			lsh3			lsh4			ltoe			SBIKE			LBIKE			RBIKE			
		X1	Y1	Z1	X2	Y2	Z2	X3	Y3	Z3	X4	Y4	Z4	X5	Y5	Z5	X6	Y6	Z6	X7	Y7	Z7	X8	Y8	Z8	X9	Y9	Z9	X10	Y10	Z10	X11	Y11	Z11	X12	Y12	Z12	X13	Y13	Z13	X14	Y14	Z14	X15	Y15	Z15	X16	Y16	Z16	X17	Y17	Z17	X18	Y18	Z18	X19	Y19	Z19	X20	Y20	Z20	X21	Y21	Z21	X22	Y22	Z22	X23	Y23	Z23	X24	Y24	Z24	X25	Y25	Z25	X26	Y26	Z26	X27	Y27	Z27	X28	Y28	Z28	X29	Y29	Z29	X30	Y30	Z30	X31	Y31	Z31	X32	Y32	Z32	X33	Y33	Z33	X34	Y34	Z34	X35	Y35	Z35	X36	Y36	Z36	X37	Y37	Z37	X38	Y38	Z38	X39	Y39	Z39	X40	Y40	Z40	X41	Y41	Z41	X42	Y42	Z42	X43	Y43	Z43	X44	Y44	Z44	X45	Y45	Z45	X46	Y46	Z46	X47	Y47	Z47	X48	Y48	Z48	X49	Y49	Z49	
251	1.2550	410.067147	1259.615173	25.003269	493.926048	1321.098756	-240.001977	404.019039	1328.766524	-120.376854	411.272918	1184.329359	-140.449581	419.735095	1004.344464	115.357817	604.714637	923.176659	21.721304	502.915132	1090.124947	-414.465631	638.819217	912.326444	-376.189282	-99.859391	1108.166633	-234.675410	77.333051	1110.227347	-376.966640	74.573870	1096.651190	-98.059807	76.985713	1026.223361	-355.634586	82.505509	1021.181356	-102.708856	-50.612772	1160.674405	-180.734952	-38.032835	1169.853471	-293.972945	-25.180574	1020.239346	-43.634919	-49.854366	983.257460	-428.561808	62.405106	907.743770	-15.219404	142.003554	869.184223	-24.812914	190.441210	798.550630	-27.921320	164.760369	898.721709	-33.161056	276.514317	725.976787	-40.321104	268.231635	710.884365	-155.672036	238.032697	614.772959	-11.768989	253.569122	527.784499	-23.479376	224.431031	446.567119	-28.777202	284.078909	528.440692	-47.120274	209.775498	345.854241	-45.470560	233.512950	365.513614	-126.526969	161.845215	321.498375	-95.209991	403.903283	313.784636	-79.539820	321.595591	281.090399	-20.160049	50.237904	890.746051	-438.389376	133.494151	870.827344	-422.581344	149.436636	902.285778	-412.524796	197.744863	809.748462	-414.117363	281.131747	743.464948	-389.868465	273.072194	734.813964	-266.468737	-7.069683	495.188691	-380.442418	-67.093736	503.386717	-333.246261	31.328376	356.402906	-395.598553	181.764983	671.346562	-419.521539	141.053860	595.260967	-399.508777	64.483279	549.653657	-395.543211	162.627386	580.463421	-372.293140	106.867377	330.682452	-343.216277	-204.194237	831.287856	-224.779207	-78.125668	81.810162	-423.732854	-102.625714	80.636327	-24.461939	
252	1.2600	408.359116	1260.016396	25.232195	493.237772	1321.278927	-239.612332	402.572456	1329.234936	-120.228880	409.836938	1184.805141	-140.320083	419.735999	1004.853025	115.306038	604.757906	923.304780	21.601262	503.184049	1090.280740	-413.958107	638.849911	912.242216	-375.955726	-100.915911	1107.690765	-234.463870	75.981648	1110.773719	-377.000609	73.962126	1096.498840	-98.011468	75.925027	1026.684948	-355.665861	81.979952	1021.037305	-102.846604	-51.427085	1160.548774	-181.263410	-39.436279	1169.887173	-293.712068	-25.744861	1019.303922	-43.694307	-50.555273	983.353690	-428.558271	61.774051	906.667286	-15.599608	141.180094	867.781857	-25.384871	189.401155	797.064647	-28.480171	164.190031	897.289324	-33.424506	275.232328	724.195521	-40.930610	266.563784	709.277834	-156.191327	236.996493	613.028755	-12.120868	252.729457	526.082564	-23.776438	223.708077	444.805413	-28.858477	283.057667	526.720435	-47.561521	209.248493	343.995093	-45.439728	232.813912	363.472509	-126.606716	161.266668	319.716358	-95.160346	403.406915	312.043969	-79.575743	321.212004	279.309180	-20.159699	49.985963	891.179771	-438.043962	133.403426	871.640431	-422.494072	149.285696	903.274612	-412.733536	197.927051	810.757086	-413.967824	281.510777	745.016936	-389.747420	273.280590	736.283004	-266.387047	-6.764294	496.965106	-380.345513	-66.820231	505.077908	-333.194231	31.715611	358.114102	-395.614265	182.128903	672.917962	-419.476197	141.427715	596.887837	-399.440539	64.921082	551.554597	-395.413175	163.014022	582.149099	-372.047258	107.245553	332.459698	-343.132689	-204.199480	831.317379	-224.794902	-78.133021	81.808535	-423.714236	-102.624138	80.651204	-24.458194	
253	1.2650	406.790205	1260.447992	25.513815	492.499109	1321.463493	-239.382229	401.142207	1329.763645	-120.105678	408.466475	1185.143119	-140.165486	419.643198	1005.357320	115.263816	604.798702	923.324072	21.554643	503.271067	1090.381050	-413.636952	638.893593	912.143228	-375.762379	-102.044130	1107.330933	-234.065219	74.723057	1111.249004	-377.101051	73.250421	1096.510392	-98.062583	74.859288	1027.182742	-355.687928	81.462032	1020.949134	-102.937454	-53.394771	1160.233308	-179.573001	-40.858402	1169.980954	-293.441903	-26.348256	1018.522051	-43.862452	-51.244193	983.555074	-428.535150	61.077088	905.687990	-15.951791	140.389691	866.568058	-25.733401	188.329888	795.642042	-28.948801	163.534918	895.829589	-33.641649	273.833243	722.518202	-41.456648	264.996133	707.442243	-156.624882	235.909409	611.327269	-12.420237	251.830849	524.262923	-24.091740	223.076737	443.001548	-28.938650	282.343164	525.088609	-48.012841	208.669383	342.108944	-45.474429	232.270099	361.722476	-126.506592	160.748813	317.790032	-95.121892	402.917753	310.335035	-79.620856	320.766124	277.571062	-20.206813	49.829053	891.873269	-438.112242	133.297989	872.640825	-422.407781	148.960772	904.281469	-412.307961	198.094171	812.070524	-413.904057	281.884817	746.728712	-389.748789	273.485918	737.659576	-266.412374	-6.410658	498.673144	-380.266053	-66.505552	506.863982	-333.117836	32.155011	359.940781	-395.526730	182.460795	674.606461	-419.473031	141.780467	598.482812	-399.283936	65.284430	553.263410	-395.268192	163.348262	583.913499	-371.989988	107.696717	334.252735	-343.151553	-204.203481	831.291750	-224.806501	-78.149602	81.806758	-423.715442	-102.627923	80.635650	-24.457868	
254	1.2700	405.218101	1260.864506	25.697860	491.745380	1321.569763	-239.073675	399.748793	1330.336956	-120.060162	406.951333	1185.547713	-139.917705	419.485456	1005.960734	115.146094	604.816601	923.302821	21.615439	503.415920	1090.433704	-413.209676	638.934419	912.040118	-375.606040	-103.127191	1107.175646	-233.714421	73.359591	1111.903211	-377.175670	72.383059	1096.653822	-98.211868	73.776317	1027.780239	-355.687520	80.965310	1020.918643	-102.972361	-54.273159	1160.364583	-180.036716	-42.223377	1170.176757	-293.135582	-26.972941	1017.859378	-44.133556	-52.025813	983.878414	-428.461994	60.563064	904.780587	-16.113050	139.501176	865.520702	-26.155811	187.212921	794.147748	-29.328130	162.908285	894.508924	-33.717564	272.455769	720.817745	-41.871275	263.402663	705.669229	-157.038956	234.792691	609.540012	-12.717950	250.942486	522.672688	-24.094937	222.381931	441.248394	-29.036834	281.260977	523.449125	-48.334725	207.895673	340.394134	-45.269269	231.603773	359.832348	-126.516593	160.248221	315.925065	-95.128579	402.425885	308.630413	-79.660998	320.224678	275.774621	-20.302283	49.558248	892.461781	-437.727338	133.172777	873.792454	-422.316223	148.806937	905.456125	-412.527213	198.299239	813.511522	-413.883976	282.224170	748.600352	-389.767108	273.768814	739.330730	-266.433529	-6.034038	500.431090	-380.244321	-66.155731	508.627922	-333.065579	32.605453	361.727572	-395.418687	183.483380	676.628272	-420.079602	142.059156	600.091256	-399.213770	65.719498	554.884828	-395.209794	163.700364	585.524084	-372.015382	108.211342	336.095428	-343.152677	-204.209679	831.282568	-224.805916	-78.132269	81.816304	-423.723911	-102.642330	80.652665	-24.456865	
